<svg xmlns="http://www.w3.org/2000/svg" fill="#393646" viewBox="0 0 36.01 34.99"><title>Recurso 13</title><g id="Capa_2" data-name="Capa 2"><g id="Capa_1-2" data-name="Capa 1"><path d="M25.62,7.21a.88.88,0,0,0,0,.28c.54,2.33,1.75,4.57,1.11,5.94a6.7,6.7,0,0,1-4.95,3.12c-10.29.42-8.2.78-8.39-7.43,0-.54,0-1.08,0-1.62C13.57-.6,11.8-.17,21.29.12A6.3,6.3,0,0,1,25.9,2.58C26.59,3.79,25.8,5.84,25.62,7.21ZM17,13.72a.78.78,0,0,0,1,.74c2-.57,3.74-1.05,5.43-1.7.26-.09.3-1.87.06-2-1.67-.7-3.42-1.24-5.46-1.9a.78.78,0,0,0-1,.73Zm-.24-7.38a.78.78,0,0,0,1,.78c1.95-.55,3.5-1,5-1.55a2.87,2.87,0,0,0,0-1.92c-1.51-.51-3.08-.86-4.85-1.27a.77.77,0,0,0-.95.71Z"/><path d="M14.34,25.75a2.4,2.4,0,0,1-.42,2.61.89.89,0,0,1-.5.3,2.4,2.4,0,0,1-1.73-1q-4.59-6.1-9,0l-.15.16A1.54,1.54,0,0,1,0,26.73a1,1,0,0,1,0-.45C1.58,22.13,3.21,18,4.94,13.93c.8-1.88,2.77-2.72,3.78-.84C10.87,17.12,12.51,21.41,14.34,25.75ZM9.16,21.31,7.55,17.25a.54.54,0,0,0-1,0L5.15,21.33a.54.54,0,0,0,.51.71h3A.53.53,0,0,0,9.16,21.31Z"/><path d="M35.19,28.28a.93.93,0,0,1,.82.9,6,6,0,0,1-.54,2.56c-1.48,2.84-4.18,3.5-7.14,3.17a6.78,6.78,0,0,1-6.11-5.42c-1-3.55-.52-6.88,2.35-9.39a7.06,7.06,0,0,1,8.5-.9,8.76,8.76,0,0,1,2.78,2.95.67.67,0,0,1,.07.5A1.53,1.53,0,0,1,34,23.92a.72.72,0,0,1-.42-.27c-1.54-2.25-3.81-4-5.94-2C26.11,23,25.55,26,25.5,28.26c0,1.27,1.71,3.47,2.91,3.66,1.44.23,3.18-1.16,4.7-2a4.45,4.45,0,0,0,1.12-1.19,1,1,0,0,1,1-.43Z"/></g></g></svg>