<svg xmlns="http://www.w3.org/2000/svg" fill="#393646" viewBox="0 0 27.58 35.1"><title>Recurso 11</title><g id="Capa_2" data-name="Capa 2"><g id="Capa_1-2" data-name="Capa 1"><path d="M19.11,12.5a1.37,1.37,0,0,0,2.39.07,6.66,6.66,0,0,1,.69-1,2.57,2.57,0,0,1,2.46-.07c4.51,6.08,3.66,17-1.53,22.11-1.92,1.88-3.21,2.3-4.39-.8-.67-1.74-2.3-3.09-3.37-4.7-1.25-1.87-2.42-3.79-3.64-5.76a1.39,1.39,0,0,0-2.15-.26c-2.25,2.24-1.59,6.26.93,9.34a4.31,4.31,0,0,1,.69,1.33,1.38,1.38,0,0,1-1.43,1.85A4.94,4.94,0,0,1,8,34.21C.4,30.47-2,23.31,1.8,15.77c1.5-2.95,3.64-5.57,5.29-8.46,1-1.76,1.64-3.75,2.48-5.61a10.53,10.53,0,0,1,.53-1A1.38,1.38,0,0,1,12,.19a2.46,2.46,0,0,1,.92.82C15,4.78,17.05,8.61,19.11,12.5Z"/></g></g></svg>