<svg xmlns="http://www.w3.org/2000/svg" viewBox="0 0 173.64 173.54"><defs><style>.cls-1{fill:#e96479;}</style></defs><title>Recurso 5</title><g id="Capa_2" data-name="Capa 2"><g id="Capa_1-2" data-name="Capa 1"><path class="cls-1" d="M104.49,141.45c-3.24-8.56-9.4-13.48-18.93-14.21a19.28,19.28,0,0,1-8.83-3.58c-3.18-2.2-5.61-5.44-8.66-7.87-6.92-5.52-17.48-5.42-25.33.65a20.8,20.8,0,0,1-14.11,4.36c-9.86-1.07-18,5.5-21.36,15.29C3.58,146.8,8.8,160.65,18.38,164.8c8.4,3.65,15.9,1.49,22.92-3.78a15.41,15.41,0,0,1,5.79-3c9.38-1.91,17.4.64,23.57,8.17,8.08,9.84,22.17,9.73,30.21-.29C106.85,158.49,107.78,150.13,104.49,141.45Zm-25.64,9.3a9.89,9.89,0,0,1-15.69.14,11.8,11.8,0,0,0-12.25-4.24,8,8,0,0,0-3,1.54c-3.65,2.74-7.54,3.86-11.91,2-5-2.16-7.69-9.35-5.77-14.92,1.75-5.08,6-8.5,11.1-7.94A10.87,10.87,0,0,0,48.65,125a10.74,10.74,0,0,1,13.16-.35c1.58,1.27,2.85,2.95,4.5,4.09a10,10,0,0,0,4.59,1.86A10.64,10.64,0,0,1,80.73,138,12.27,12.27,0,0,1,78.85,150.75Z"/><path class="cls-1" d="M165.82,71.44c-6.83-5.21-14-7.57-22-2.22-6,4-12.59,4.59-19.72,3.23-3.44-.66-7.26.3-10.83.94a4.55,4.55,0,0,0-2.94,2.72c-1.34,4.71-2.32,9.51-3.56,14.94a.26.26,0,0,0,.39.28c7.78-4.86,15.27-5.92,21.79,1.17,6,6.49,4.52,14,1.76,21.87a.24.24,0,0,0,.33.3c7.15-3.12,10.84-3.93,16.45-2.41,10,2.69,19.34-2.41,23.94-11.83C175.89,91.19,173.43,77.26,165.82,71.44Zm-8.91,18.78c-2,4.2-6.23,6.48-10.68,5.27a7.83,7.83,0,0,0-3.33-.25,2.78,2.78,0,0,1-3.12-3.07A6.79,6.79,0,0,0,138,86.68c-1.76-1.92-3.78-1.47-5.7-2.18-2.2-.81-3.2-1.81-3.08-3.33,0,0,0-.06,0-.08a4.74,4.74,0,0,1,3.5-3.25,8.78,8.78,0,0,1,3.1-.1,11.33,11.33,0,0,0,8.8-1.45c3.59-2.38,6.78-1.33,9.83,1C157.82,79.88,158.92,86.1,156.91,90.22Z"/><path class="cls-1" d="M121.61,3.7c-8.2-6.92-16.53-3.58-20.06,5.36-5.49,13.88-.76,34.42,12.82,44.35,4.15,3,10.72,2.14,14.36-1.46,4.94-4.88,5.68-11,6.12-18.32C134.11,22.67,131.27,11.86,121.61,3.7Zm5.81,47.07c-2.77,2.15-7.77,2.68-10.92.87-10.32-5.94-13.91-18.22-9.74-26.53,2.68-5.35,9-7.34,15.24-3.21,7.35,4.89,9.5,11.35,10.06,17.91C131.73,44.17,131.17,47.85,127.42,50.77Z"/><path class="cls-1" d="M99.39,53.74C95.15,47.17,86,48.1,81.46,52.33a37.27,37.27,0,0,0-11,19.56,42.35,42.35,0,0,0,1.3,23.81c.14.39.28.77.43,1.15,2.52,6.42,10.12,8.59,16.17,5.62,7.53-3.71,11-10.44,13.33-17.72C105.1,74.24,105.88,63.8,99.39,53.74ZM97.16,90.06c-1.74,4.15-4.3,8-9.89,10.09-4.48,1.7-10.11.46-12-3.19-.11-.22-.22-.44-.32-.66a18.85,18.85,0,0,1-1-13.56A20.61,20.61,0,0,1,82.15,71.6c3.33-2.41,10.15-2.94,13.29.81C100.25,78.14,99.67,84.08,97.16,90.06Z"/><path class="cls-1" d="M55.71,52.13c-2-3.2-5-6.48-8.38-7.91-6.94-3-11.25-.15-15.53,7.48-6.83,12.16-6.09,32.54,5.43,45,4.12,4.46,12.56,3.89,16.53-.76,5.78-6.74,7.33-14.64,7.43-26C61.38,65.39,59.53,58.36,55.71,52.13Zm-4.6,42.44c-2.65,2.69-8.27,3-11,.44-7.67-7.2-8.15-19-3.61-26,2.85-4.41,5.72-6,10.35-4.32a12.8,12.8,0,0,1,5.57,4.57c2.55,3.59,3.78,7.65,3.65,10.28C56,86.12,55,90.68,51.11,94.57Z"/><path class="cls-1" d="M80,27.27c-10.72-4.6-20.38.91-20.81,12.57-.31,8.31,6.27,14,6.93,22.67a.11.11,0,0,0,.21.05c6.89-11.73,13-22.34,28.63-20.46C90.94,35.47,86.55,30.09,80,27.27Zm3.38,14.2c-6.07,0-9.13,4.14-12.06,9.15a.92.92,0,0,1-1.69-.26,17.68,17.68,0,0,0-.74-2c-4.15-9.8,9.07-17.59,15-8.8l.32.48A1,1,0,0,1,83.34,41.47Z"/><path class="cls-1" d="M163.87,25.27l0-.09c-2.31-5.08-9.09-5.69-12.67-1.34-.91,1.11-1.74,2.29-2.6,3.44-5,6.63-5.86,17.87-1.82,24.62a7.44,7.44,0,0,0,12,1.27,28.8,28.8,0,0,0,5.52-8.5A24.3,24.3,0,0,0,163.87,25.27ZM159.8,49a16.23,16.23,0,0,1-2.67,2.87,5.8,5.8,0,0,1-8.14-.69c-2.74-3.65-2.18-9.73,1.23-13.31.59-.62,1.14-1.26,1.76-1.86,2.43-2.35,7-2,8.59.73l0,0A11.12,11.12,0,0,1,159.8,49Z"/><path class="cls-1" d="M117.08,94.62c-5.86.54-10.34,4.12-13.5,8.51A26.31,26.31,0,0,0,99.25,115c-.63,5.28,2.81,8,8.19,8.32,10,.49,19.48-10.79,19.37-19.64C126.78,97.72,123,94.06,117.08,94.62Zm-8.5,26.88c-3.74.53-6.43-.68-6.57-3.92A14.64,14.64,0,0,1,103.7,110a13.74,13.74,0,0,1,8.4-6.78c4-1.09,7,.61,7.71,4.18C120.86,112.6,115.53,120.53,108.58,121.5Z"/><path class="cls-1" d="M11.29,82.89c-6-2.2-10.93,1-11.26,7.43-.41,8.26,3.19,14.58,9.51,19.78,3.5,2.88,7.13,4.15,11.22,2.51s4.49-5.44,4.68-8.09C25.36,94.59,19.32,85.83,11.29,82.89Zm8.54,27.9c-3.11,1-5.87.23-8.52-1.58C6.5,106,3.77,102,4.08,96.79c.25-4.06,4-6,8.56-4.66,6.09,1.85,10.68,7.34,10.74,13.58C23.24,107.37,22.83,109.79,19.83,110.79Z"/></g></g></svg>