<svg xmlns="http://www.w3.org/2000/svg" fill="#393646" viewBox="0 0 31.97 34.41"><title>Recurso 12</title><g id="Capa_2" data-name="Capa 2"><g id="Capa_1-2" data-name="Capa 1"><path d="M11.57,0l16.9,2.54a1.06,1.06,0,0,1,.9,1.06c0,.82,0,1.84,0,2.86a4.66,4.66,0,0,0,.42,2.27c.58.88,2.24,1.64,2.15,2.25a14.09,14.09,0,0,1-2,6.09,4.47,4.47,0,0,1-4.35.84c-1-.59-1.46-2.94-1.2-4.34.64-3.29,2-6.46,3-9.69l-.28-.28L19.25,6.05a2.5,2.5,0,0,1-2.8-1c-1.1-1.59-1.63-1.6-4.25-1.7.78,1.67,1.18,3.16,2.07,4.25,1.31,1.61,3,2.88,4.47,4.41,6.23,6.66,4.2,16.65-4.45,20.71a46.72,46.72,0,0,0,1-5.71,3.81,3.81,0,0,0-.67-1.83.6.6,0,0,0-1-.12,3.47,3.47,0,0,0-1,1.54c-1.16,6.61-4,8.59-10.72,7.49-2.06-.34-2.15-1.55-1.61-3C1.74,27,4,23.58,8,21.64c2-1,4.16-1.8,6.09-2.95a3.94,3.94,0,0,0,.77-6.49,40.24,40.24,0,0,1-3.46-3.45C8.89,5.61,9.26,2.25,11.57,0Z"/></g></g></svg>