<svg xmlns="http://www.w3.org/2000/svg" fill="#393646" viewBox="0 0 33.95 34.97"><title>Recurso 14</title><g id="Capa_2" data-name="Capa 2"><g id="Capa_1-2" data-name="Capa 1"><path d="M24.81,0a.51.51,0,0,1,.51.48c.18,2.62.46,5.25.41,7.88,0,.62-1.23,1.56-2,1.73a17.24,17.24,0,0,1-3.9.09.51.51,0,0,0-.52.51v9.16a.51.51,0,0,0,.51.51,61.71,61.71,0,0,1,6.8.07,6.9,6.9,0,0,1,3.82,2c2.3,2.54,4.24,5.37,3.3,9.11-.22.89-1.1,2.22-1.77,2.28a1.78,1.78,0,0,0-1.7,1.09l-3.19-.06-.2-.55a.52.52,0,0,0-.49-.34c-5.89,0-11.6.07-17.31,0-1.31,0-2.18.24-2.64,1.07l-3.12,0a2.58,2.58,0,0,0-.55-.87c-.83-.79-2.71-1.3-2.73-2A19.63,19.63,0,0,1,1,25.6,9.59,9.59,0,0,1,3.56,22a5.45,5.45,0,0,1,3-1.53c2.35-.21,4.74-.09,7.26-.08a.51.51,0,0,0,.52-.51V10.51a5.13,5.13,0,0,0-.5-.27c-2-.88-5.86,1.91-6-2.73a55.62,55.62,0,0,1,.47-7A.5.5,0,0,1,8.79,0ZM2.36,26.94H31.21a.52.52,0,0,0,.46-.74c-1.68-3.48-4-5.32-8.31-4.82a56.27,56.27,0,0,1-13.54,0c-4.34-.55-6.11,1.79-7.9,4.8A.51.51,0,0,0,2.36,26.94Zm-.8,5.66H32a.51.51,0,0,0,.51-.51V29a.51.51,0,0,0-.51-.51H1.56a.51.51,0,0,0-.51.51v3.07A.51.51,0,0,0,1.56,32.6ZM24.12,1.35H9.53A.51.51,0,0,0,9,1.86V6.47A.51.51,0,0,0,9.53,7h9.93a.5.5,0,0,1,.51.52h0a.5.5,0,0,1-.51.5H9.05l0,.31a.51.51,0,0,0,.51.49H24.12a.51.51,0,0,0,.51-.51V1.86A.51.51,0,0,0,24.12,1.35ZM17.69,14c0-.13-.68-.2-1.31-.29a.52.52,0,0,0-.59.51v5.64a.51.51,0,0,0,.64.49c.68-.16,1.34-.3,1.35-.47"/></g></g></svg>